Coordinates
version=1
nRows=13
nColumns=34
inDegrees=yes

Units are S.I. units (second, meters, Newtons, ...)
If the header above contains a line with 'inDegrees', this indicates whether rotational values are in degrees (yes) or radians (no).

endheader
time	pelvis_tilt	pelvis_list	pelvis_rotation	pelvis_tx	pelvis_ty	pelvis_tz	hip_flexion_r	hip_adduction_r	hip_rotation_r	knee_angle_r	ankle_angle_r	subtalar_angle_r	mtp_angle_r	hip_flexion_l	hip_adduction_l	hip_rotation_l	knee_angle_l	ankle_angle_l	subtalar_angle_l	mtp_angle_l	lumbar_extension	lumbar_bending	lumbar_rotation	arm_flex_r	arm_add_r	arm_rot_r	elbow_flex_r	pro_sup_r	arm_flex_l	arm_add_l	arm_rot_l	elbow_flex_l	pro_sup_l
      8.95000000	      6.28810144	    -11.65957409	    -67.48118267	      1.57304792	      1.02977814	      3.61382030	    -15.15053965	      4.43444013	     -3.52638240	     29.00688741	     13.71753964	      6.19667714	      0.00000000	    -29.63054488	      7.90441834	      5.14626727	      0.00000000	     27.32259899	      5.71852844	      0.00000000	     -7.32858871	     -3.97019778	      2.42403661	     19.72747580	      2.38911527	     13.51434162	     16.13650059	    112.21154061	     15.26770601	      5.40786458	     18.08075328	     16.18213817	    103.91010370
      8.96666670	      6.21520891	    -11.47032469	    -67.38373037	      1.57326942	      1.02957396	      3.61450324	    -15.01323601	      4.62921210	     -2.97988254	     28.80762311	     12.22950778	      4.74954005	      0.00000000	    -29.45887606	      7.83883210	      4.85419401	      0.00000000	     27.57200461	      6.26898803	      0.00000000	     -7.32003902	     -4.03828283	      2.01366483	     19.59250470	      2.51791739	     12.73078697	     16.15823930	    112.13861249	     15.09512741	      5.03893456	     18.59632930	     16.25516267	    104.22828647
      8.98333330	      6.11848510	    -11.42761773	    -67.52888201	      1.57344829	      1.02947497	      3.61496793	    -14.73190659	      4.51387641	     -3.24044565	     29.11833674	     10.75409221	      4.70717765	      0.00000000	    -29.40625286	      7.84509527	      4.60792981	      0.00000000	     27.62394874	      6.33776287	      0.00000000	     -7.54084425	     -4.00056905	      1.90195085	     19.49899130	      2.39346396	     12.61470941	     16.14375023	    112.13287017	     14.98418123	      4.87297065	     18.72929041	     16.27520755	    104.29300883
      9.00000000	      5.74951658	    -11.64647405	    -67.55451001	      1.57415747	      1.02963063	      3.61642803	    -14.97938598	      5.24309057	     -2.08210315	     28.71419519	      8.62279123	      2.72493962	      0.00000000	    -29.58400314	      7.38885092	      2.45846986	      0.00000000	     28.47856054	      9.14393942	      0.00000000	     -7.74888412	     -3.56463845	      1.81664550	     19.15867233	      2.22196856	     11.42258532	     16.20526990	    112.15142214	     14.89199522	      4.67011026	     20.81171421	     16.27841767	    105.14896221
      9.01666670	      5.69725806	    -11.51932256	    -67.46991239	      1.57576273	      1.02910622	      3.61749706	    -14.93829830	      5.16556757	     -1.99573269	     28.66575879	      8.39298730	      2.88556070	      0.00000000	    -29.54765096	      7.41930000	      2.36962089	      0.00000000	     28.51934861	      9.18442350	      0.00000000	     -7.76819868	     -3.52784522	      1.61662768	     19.03180083	      1.88086203	     11.37678579	     16.12723027	    112.15003032	     14.81974982	      4.77250530	     20.85470571	     16.37080840	    105.16126909
      9.03333330	      5.10020244	    -11.41300199	    -67.22191337	      1.57801288	      1.02843131	      3.62045131	    -15.30186844	      5.68838477	     -2.17419604	     27.70127984	      8.69647075	      3.83212646	      0.00000000	    -29.44374185	      6.78105923	      1.87155008	      0.00000000	     29.11453662	     10.10017903	      0.00000000	     -7.29412567	     -2.92032056	      1.14005870	     18.51407458	      1.59335235	     11.28201131	     16.23599747	    112.19648761	     14.20428781	      4.63634771	     21.22502355	     16.97708232	    105.26871547
      9.05000000	      4.77197792	    -11.46004268	    -67.12150388	      1.58005526	      1.02795241	      3.62327806	    -16.07577411	      6.06817180	     -1.81043292	     26.54652389	     10.18125999	      4.65267919	      0.00000000	    -29.59911501	      6.43099427	      1.43232094	      0.00000000	     29.57348580	     10.89579740	      0.00000000	     -7.13906514	     -2.56190102	      0.85830772	     18.15891926	      1.31233386	     11.14550672	     16.23279186	    112.20931483	     13.83341506	      4.68905131	     21.47118789	     17.14287356	    105.32352113
      9.06666670	      4.33213577	    -11.72157696	    -66.98583778	      1.58296976	      1.02746542	      3.62691843	    -17.39851789	      6.57281476	     -1.87438078	     24.89493212	     12.16107465	      5.63934345	      0.00000000	    -30.00000025	      5.90033253	      0.57691785	      0.00000000	     30.16672682	     12.08618503	      0.00000000	     -6.85927236	     -1.84940829	      0.61956202	     17.54477165	      0.82411421	     10.76586373	     16.47562666	    112.18116625	     13.14836619	      4.86233180	     21.65913961	     17.55576425	    105.33720877
      9.08333330	      4.22578516	    -11.47998515	    -66.69080330	      1.58506627	      1.02634109	      3.63061694	    -18.47997432	      6.74770135	     -1.53611193	     23.00528289	     14.94169244	      6.32870749	      0.00000000	    -30.00000025	      5.70350415	     -1.83263168	      0.00000000	     31.20348461	     15.99212378	      0.00000000	     -6.04647407	     -1.76671391	      0.09336806	     16.85111421	      0.92517298	      8.55713125	     17.19274726	    112.02582450	     12.45351873	      4.84675787	     20.37196628	     17.80825928	    104.85294067
      9.10000000	      4.45065733	    -11.13104290	    -66.36467626	      1.58736542	      1.02527972	      3.63362352	    -19.52373771	      6.69822301	     -0.20861829	     21.18121161	     17.28648374	      6.25809076	      0.00000000	    -30.00000025	      5.92511380	     -1.48778929	      0.00000000	     31.24311185	     16.30527569	      0.00000000	     -5.26676517	     -1.96686836	     -0.37210404	     16.27737158	      0.78942152	      8.51369690	     17.85005114	    112.08865412	     11.90212711	      4.72415847	     20.16949941	     18.00201895	    104.79865119
      9.11666670	      4.53621820	    -10.82426770	    -65.40742114	      1.59035525	      1.02460122	      3.63686742	    -20.60776024	      7.09636074	      0.78738373	     19.09166040	     17.88072195	      4.76331300	      0.00000000	    -30.00000025	      5.66539858	     -0.77372062	      0.00000000	     31.31965137	     16.69693695	      0.00000000	     -4.46269490	     -2.13090844	     -1.19257402	     15.25518776	      0.62990214	      8.11904891	     19.09775388	    112.19534551	     11.17497689	      4.62628719	     19.12519986	     18.69004240	    104.55753923
      9.13333330	      4.51387593	    -10.59398869	    -65.27865390	      1.59165509	      1.02394495	      3.64019045	    -21.15360559	      7.15618661	      1.92736602	     18.12694529	     18.77030812	      4.69187908	      0.00000000	    -30.00000025	      5.64171490	     -0.44388434	      0.00000000	     31.39756492	     16.64279428	      0.00000000	     -3.69512325	     -2.29262654	     -1.53665803	     14.82208595	      0.73989692	      7.96616463	     19.26310631	    112.20938335	     10.64435939	      4.48220844	     18.91363278	     18.79769480	    104.52520087
      9.15000000	      4.17382910	    -10.55987348	    -64.83932574	      1.59261404	      1.02382120	      3.64324557	    -22.36362234	      8.14615405	      5.35433435	     15.79574977	     17.05734952	      0.22982853	      0.00000000	    -30.00000025	      5.05130463	      1.59739559	      0.00000000	     31.23487852	     14.50254759	      0.00000000	     -3.23316421	     -2.13743408	     -2.09529474	     14.16437160	      0.99200250	      5.71786780	     20.17808578	    112.34146418	      9.72085678	      4.28111806	     17.32545011	     19.94467675	    104.58938857
